<svg xmlns="http://www.w3.org/2000/svg" viewBox="0 0 1200 760" role="img" aria-labelledby="title desc">
  <title id="title">摘要圖封面</title>
  <desc id="desc">淺色筆記桌面風格封面圖</desc>
  <defs>
    <linearGradient id="bg" x1="0" x2="1" y1="0" y2="1">
      <stop offset="0" stop-color="#edf4ff"/>
      <stop offset="1" stop-color="#f8fafc"/>
    </linearGradient>
    <linearGradient id="card" x1="0" x2="1" y1="0" y2="1">
      <stop offset="0" stop-color="#ffffff"/>
      <stop offset="1" stop-color="#f3f7fb"/>
    </linearGradient>
    <filter id="shadow" x="-20%" y="-20%" width="140%" height="140%">
      <feDropShadow dx="0" dy="22" stdDeviation="24" flood-color="#1f2937" flood-opacity="0.16"/>
    </filter>
  </defs>
  <rect width="1200" height="760" fill="url(#bg)"/>
  <circle cx="1010" cy="145" r="94" fill="#dbeafe" opacity="0.72"/>
  <circle cx="170" cy="640" r="120" fill="#e0f2fe" opacity="0.62"/>
  <path d="M94 180 C230 95, 370 116, 510 184 S820 244, 1040 140" fill="none" stroke="#bfdbfe" stroke-width="20" stroke-linecap="round" opacity="0.55"/>
  <g filter="url(#shadow)">
    <rect x="260" y="150" width="680" height="460" rx="26" fill="url(#card)"/>
    <rect x="318" y="218" width="270" height="22" rx="11" fill="#1f2937" opacity="0.88"/>
    <rect x="318" y="268" width="474" height="14" rx="7" fill="#94a3b8" opacity="0.62"/>
    <rect x="318" y="302" width="386" height="14" rx="7" fill="#94a3b8" opacity="0.48"/>
    <rect x="318" y="360" width="564" height="118" rx="18" fill="#eff6ff" stroke="#dbeafe"/>
    <rect x="352" y="394" width="118" height="20" rx="10" fill="#2563eb" opacity="0.88"/>
    <rect x="352" y="434" width="320" height="13" rx="6.5" fill="#64748b" opacity="0.5"/>
    <rect x="352" y="462" width="430" height="13" rx="6.5" fill="#64748b" opacity="0.36"/>
    <g transform="translate(720 376)">
      <rect width="118" height="82" rx="15" fill="#ffffff" stroke="#dbeafe"/>
      <path d="M24 56 L47 34 L62 48 L77 28 L98 56" fill="none" stroke="#178f5b" stroke-width="8" stroke-linecap="round" stroke-linejoin="round"/>
      <circle cx="37" cy="27" r="8" fill="#f59e0b"/>
    </g>
  </g>
  <text x="600" y="675" text-anchor="middle" font-family="Microsoft JhengHei, Noto Sans TC, Arial, sans-serif" font-size="28" font-weight="700" fill="#1f2937">選擇左側日期查看摘要圖</text>
  <text x="600" y="714" text-anchor="middle" font-family="Microsoft JhengHei, Noto Sans TC, Arial, sans-serif" font-size="18" fill="#738195">Daily Notes Gallery</text>
</svg>
